<svg height="479pt" viewBox="-90 0 479 479.89074" width="479pt" xmlns="http://www.w3.org/2000/svg"><path d="m89.640625 27.867188-4.546875 20.757812 13.675781 3 4.546875-20.757812c2.53125-11.578126 13.972656-18.914063 25.550782-16.375l82.289062 18.019531c11.578125 2.535156 18.90625 13.976562 16.371094 25.550781l-4.546875 20.757812 13.675781 3 4.546875-20.757812c4.1875-19.128906-7.921875-38.03125-27.054687-42.222656l-82.289063-18.019532c-19.128906-4.1875-38.03125 7.921876-42.222656 27.050782zm0 0"/><path d="m299.101562 125.011719c2.535157-11.578125-4.792968-23.015625-16.371093-25.550781l-246.863281-54.0625c-11.578126-2.535157-23.019532 4.796874-25.554688 16.375l-9.867188 45.054687 288.789063 63.238281zm0 0"/><path d="m39.226562 479.890625h179.480469c17.644531 0 30.320313-14.808594 30.320313-34.074219v-243.925781h-241v243.925781c0 19.265625 13.558594 34.074219 31.199218 34.074219zm138.800782-241.632813c0-3.867187 3.132812-7 7-7 3.863281 0 7 3.132813 7 7v188.777344c0 3.867188-3.136719 7-7 7-3.867188 0-7-3.132812-7-7zm-56 0c0-3.867187 3.132812-7 7-7 3.863281 0 7 3.132813 7 7v188.777344c0 3.867188-3.136719 7-7 7-3.867188 0-7-3.132812-7-7zm-57 0c0-3.867187 3.132812-7 7-7 3.863281 0 7 3.132813 7 7v188.777344c0 3.867188-3.136719 7-7 7-3.867188 0-7-3.132812-7-7zm0 0"/></svg>