<svg version="1" xmlns="http://www.w3.org/2000/svg" width="800" height="800" viewBox="0 0 600.000000 600.000000"><path d="M283 68.3c-.3.3-3.2.7-6.5 1-11 1.1-28.5 5.5-37.5 9.5-23 10.1-36.1 18.9-51.6 34.8-19.4 19.7-32.7 43.7-39.2 70.4-3.1 12.8-3.7 18.9-3.6 37.5.1 13.4.6 19.2 2.3 27.5 4.3 20.4 11.1 36.9 23 55.3 4.8 7.4 25.7 43.1 37.9 64.6 1.4 2.5 3.8 6.7 5.3 9.3 1.6 2.7 2.9 5.1 2.9 5.4 0 .2 1.7 3.3 3.8 6.7 4.1 6.6 13.7 22.8 16.9 28.7 1.1 1.9 8 13.8 15.3 26.5 7.4 12.6 14 24.1 14.7 25.5.8 1.4 2.3 3.8 3.3 5.5 1.1 1.6 2.3 3.6 2.6 4.4.4.7 4.7 8.4 9.5 17s9.6 17.1 10.7 19l1.9 3.4 8-13.9c4.5-7.7 9-15.3 10-17.1 1-1.7 4.7-8.2 8.3-14.4 3.6-6.2 6.7-11.8 6.9-12.4.2-.5.9-1.7 1.6-2.5.7-.8 2.5-3.8 4-6.5 1.4-2.8 3.6-6.6 4.7-8.5 10.7-18.4 22.4-38.6 31.2-54 5.8-10.2 11-19.2 11.5-20 .8-1.3 6.8-11.5 24-41.4 5.2-9 12.1-20.6 17.5-29.1 10.5-16.6 18.4-36.7 21.1-53.7.3-1.8.9-5.8 1.4-8.8 1-5.8.7-35.7-.3-40-.3-1.4-.9-4.1-1.2-6-8.1-46.9-40.3-88.7-84.4-109.7-10.9-5.2-26.3-10.1-37-11.8-2.5-.4-5.4-.9-6.5-1.2-2.8-.6-32-1.5-32.5-1zm26.5 100.4c2.7.9 6.8 2.6 9 3.9 4.3 2.5 12.5 9.9 12.5 11.3 0 .5.7 1.4 1.5 2.1 2.3 1.9 5.6 11.9 6.2 18.6 1 11.7-3.5 24-11.9 32.3-4.7 4.7-12.9 9.6-17.9 10.7-6.1 1.4-15.2 1.5-20.1.4-4.8-1.2-6.6-2-13.9-6.2-6.8-3.9-14.1-14.4-16.6-23.8-1.2-4.7-1.1-18 .1-21.5 8.2-22.3 29.8-34.1 51.1-27.8z"/></svg>